<?xml version="1.0" encoding="UTF-8"?>
<svg width="128" height="128" viewBox="0 0 128 128" xmlns="http://www.w3.org/2000/svg">
    <!-- Фон -->
    <rect x="0" y="0" width="128" height="128" fill="#1E1E2E"/>
    
    <!-- Цветовые круги -->
    <circle cx="64" cy="64" r="50" fill="none" stroke="#D9E0EE" stroke-width="2"/>
    
    <!-- Цветовые сегменты -->
    <path d="M64,64 L64,14 A50,50 0 0,1 107,85 Z" fill="#ABE9B3"/> <!-- Functions - Зеленый -->
    <path d="M64,64 L107,85 A50,50 0 0,1 64,114 Z" fill="#89DCEB"/> <!-- Keywords - Голубой -->
    <path d="M64,64 L64,114 A50,50 0 0,1 21,85 Z" fill="#DDB6F2"/> <!-- Classes - Фиолетовый -->
    <path d="M64,64 L21,85 A50,50 0 0,1 64,14 Z" fill="#F28FAD"/> <!-- Tags - Розовый -->
    
    <!-- Центральный круг -->
    <circle cx="64" cy="64" r="20" fill="#FAE3B0"/> <!-- Strings - Желтый -->
    
    <!-- Маленькие акценты -->
    <circle cx="64" cy="34" r="5" fill="#F8BD96"/> <!-- Numbers - Персиковый -->
    <circle cx="64" cy="94" r="5" fill="#6E738D"/> <!-- Comments - Серый -->
</svg> 